<?xml version="1.0" encoding="utf-8" standalone="no"?>
<!DOCTYPE svg PUBLIC "-//W3C//DTD SVG 1.1//EN"
  "http://www.w3.org/Graphics/SVG/1.1/DTD/svg11.dtd">
<svg xmlns:xlink="http://www.w3.org/1999/xlink" width="864pt" height="360pt" viewBox="0 0 864 360" xmlns="http://www.w3.org/2000/svg" version="1.1">
 <metadata>
  <rdf:RDF xmlns:dc="http://purl.org/dc/elements/1.1/" xmlns:cc="http://creativecommons.org/ns#" xmlns:rdf="http://www.w3.org/1999/02/22-rdf-syntax-ns#">
   <cc:Work>
    <dc:type rdf:resource="http://purl.org/dc/dcmitype/StillImage"/>
    <dc:date>2025-05-17T17:30:27.817723</dc:date>
    <dc:format>image/svg+xml</dc:format>
    <dc:creator>
     <cc:Agent>
      <dc:title>Matplotlib v3.10.3, https://matplotlib.org/</dc:title>
     </cc:Agent>
    </dc:creator>
   </cc:Work>
  </rdf:RDF>
 </metadata>
 <defs>
  <style type="text/css">*{stroke-linejoin: round; stroke-linecap: butt}</style>
 </defs>
 <g id="figure_1">
  <g id="patch_1">
   <path d="M 0 360 
L 864 360 
L 864 0 
L 0 0 
z
" style="fill: #ffffff"/>
  </g>
  <g id="axes_1">
   <g id="patch_2">
    <path d="M 60.05 315.16 
L 853.2 315.16 
L 853.2 28.32 
L 60.05 28.32 
z
" style="fill: #ffffff"/>
   </g>
   <g id="FillBetweenPolyCollection_1">
    <defs>
     <path id="mc700f2e09b" d="M 96.102273 -44.84 
L 96.102273 -69.891528 
L 98.513796 -72.318039 
L 100.925319 -74.718647 
L 103.336843 -77.093532 
L 105.748366 -79.442874 
L 108.159889 -81.766852 
L 110.571412 -84.065647 
L 112.982936 -86.339439 
L 115.394459 -88.588406 
L 117.805982 -90.812729 
L 120.217505 -93.012588 
L 122.629029 -95.188163 
L 125.040552 -97.339632 
L 127.452075 -99.467177 
L 129.863598 -101.570977 
L 132.275122 -103.651211 
L 134.686645 -105.708059 
L 137.098168 -107.741701 
L 139.509691 -109.752318 
L 141.921215 -111.740088 
L 144.332738 -113.705192 
L 146.744261 -115.647809 
L 149.155784 -117.568119 
L 151.567308 -119.466302 
L 153.978831 -121.342538 
L 156.390354 -123.197006 
L 158.801877 -125.029887 
L 161.213401 -126.841359 
L 163.624924 -128.631604 
L 166.036447 -130.4008 
L 168.447971 -132.149127 
L 170.859494 -133.876765 
L 173.271017 -135.583895 
L 175.68254 -137.270695 
L 178.094064 -138.937346 
L 180.505587 -140.584027 
L 182.91711 -142.210918 
L 185.328633 -143.8182 
L 187.740157 -145.406051 
L 190.15168 -146.974651 
L 192.563203 -148.524181 
L 194.974726 -150.054819 
L 197.38625 -151.566747 
L 199.797773 -153.060143 
L 202.209296 -154.535188 
L 204.620819 -155.992061 
L 207.032343 -157.430942 
L 209.443866 -158.85201 
L 211.855389 -160.255446 
L 214.266912 -161.64143 
L 216.678436 -163.010141 
L 219.089959 -164.361758 
L 221.501482 -165.696463 
L 223.913005 -167.014434 
L 226.324529 -168.315851 
L 228.736052 -169.600894 
L 231.147575 -170.869744 
L 233.559099 -172.122579 
L 235.970622 -173.359579 
L 238.382145 -174.580925 
L 240.793668 -175.786795 
L 243.205192 -176.977371 
L 245.616715 -178.152831 
L 248.028238 -179.313355 
L 250.439761 -180.459124 
L 252.851285 -181.590316 
L 255.262808 -182.707113 
L 257.674331 -183.809692 
L 260.085854 -184.898236 
L 262.497378 -185.972922 
L 264.908901 -187.033931 
L 267.320424 -188.081443 
L 269.731947 -189.115638 
L 272.143471 -190.136694 
L 274.554994 -191.144793 
L 276.966517 -192.140114 
L 279.37804 -193.122836 
L 281.789564 -194.09314 
L 284.201087 -195.051204 
L 286.61261 -195.99721 
L 289.024133 -196.931337 
L 291.435657 -197.853764 
L 293.84718 -198.764672 
L 296.258703 -199.664239 
L 298.670227 -200.552647 
L 301.08175 -201.430074 
L 303.493273 -202.296701 
L 305.904796 -203.152707 
L 308.31632 -203.998273 
L 310.727843 -204.833577 
L 313.139366 -205.658799 
L 315.550889 -206.474121 
L 317.962413 -207.27972 
L 320.373936 -208.075778 
L 322.785459 -208.862473 
L 325.196982 -209.639986 
L 327.608506 -210.408496 
L 330.020029 -211.168184 
L 332.431552 -211.919228 
L 334.843075 -212.661809 
L 337.254599 -213.396107 
L 339.666122 -214.122301 
L 342.077645 -214.840571 
L 344.489168 -215.551097 
L 346.900692 -216.254059 
L 349.312215 -216.949636 
L 351.723738 -217.638008 
L 354.135261 -218.319356 
L 356.546785 -218.993858 
L 358.958308 -219.661695 
L 361.369831 -220.323046 
L 363.781355 -220.978092 
L 366.192878 -221.627012 
L 368.604401 -222.269985 
L 371.015924 -222.907192 
L 373.427448 -223.538812 
L 375.838971 -224.165025 
L 378.250494 -224.786012 
L 380.662017 -225.401951 
L 383.073541 -226.013022 
L 385.485064 -226.619406 
L 387.896587 -227.221282 
L 390.30811 -227.81883 
L 392.719634 -228.412229 
L 395.131157 -229.00166 
L 397.54268 -229.587302 
L 399.954203 -230.169335 
L 402.365727 -230.747939 
L 404.77725 -231.323293 
L 407.188773 -231.895578 
L 409.600296 -232.464973 
L 412.01182 -233.031658 
L 414.423343 -233.595813 
L 416.834866 -234.157617 
L 419.246389 -234.717251 
L 421.657913 -235.274893 
L 424.069436 -235.830725 
L 426.480959 -236.384925 
L 428.892483 -236.937674 
L 431.304006 -237.489151 
L 433.715529 -238.039536 
L 436.127052 -238.589009 
L 438.538576 -239.137749 
L 440.950099 -239.685937 
L 443.361622 -240.233752 
L 445.773145 -240.781374 
L 448.184669 -241.328983 
L 450.596192 -241.876758 
L 453.007715 -242.42488 
L 455.419238 -242.973527 
L 457.830762 -243.522876 
L 460.242285 -244.072992 
L 462.653808 -244.623828 
L 465.065331 -245.175336 
L 467.476855 -245.727467 
L 469.888378 -246.280169 
L 472.299901 -246.833395 
L 474.711424 -247.387094 
L 477.122948 -247.941216 
L 479.534471 -248.495713 
L 481.945994 -249.050533 
L 484.357517 -249.605629 
L 486.769041 -250.160949 
L 489.180564 -250.716445 
L 491.592087 -251.272066 
L 494.003611 -251.827764 
L 496.415134 -252.383488 
L 498.826657 -252.939189 
L 501.23818 -253.494817 
L 503.649704 -254.050323 
L 506.061227 -254.605657 
L 508.47275 -255.160769 
L 510.884273 -255.71561 
L 513.295797 -256.27013 
L 515.70732 -256.824279 
L 518.118843 -257.378008 
L 520.530366 -257.931268 
L 522.94189 -258.484008 
L 525.353413 -259.036179 
L 527.764936 -259.587731 
L 530.176459 -260.138614 
L 532.587983 -260.68878 
L 534.999506 -261.238178 
L 537.411029 -261.786759 
L 539.822552 -262.334473 
L 542.234076 -262.881271 
L 544.645599 -263.427102 
L 547.057122 -263.971918 
L 549.468645 -264.515668 
L 551.880169 -265.058303 
L 554.291692 -265.599773 
L 556.703215 -266.140029 
L 559.114739 -266.679021 
L 561.526262 -267.2167 
L 563.937785 -267.753015 
L 566.349308 -268.287918 
L 568.760832 -268.821358 
L 571.172355 -269.353286 
L 573.583878 -269.883652 
L 575.995401 -270.412406 
L 578.406925 -270.9395 
L 580.818448 -271.464883 
L 583.229971 -271.988506 
L 585.641494 -272.510319 
L 588.053018 -273.030272 
L 590.464541 -273.548317 
L 592.876064 -274.064402 
L 595.287587 -274.578479 
L 597.699111 -275.090498 
L 600.110634 -275.600409 
L 602.522157 -276.108163 
L 604.93368 -276.61371 
L 607.345204 -277.117 
L 609.756727 -277.617984 
L 612.16825 -278.116612 
L 614.579773 -278.612835 
L 616.991297 -279.106602 
L 619.40282 -279.597865 
L 621.814343 -280.086573 
L 624.225867 -280.572678 
L 626.63739 -281.056128 
L 629.048913 -281.536876 
L 631.460436 -282.01487 
L 633.87196 -282.490062 
L 636.283483 -282.962401 
L 638.695006 -283.431839 
L 641.106529 -283.898326 
L 643.518053 -284.361811 
L 645.929576 -284.822245 
L 648.341099 -285.27958 
L 650.752622 -285.733764 
L 653.164146 -286.184748 
L 655.575669 -286.632484 
L 657.987192 -287.07692 
L 660.398715 -287.518008 
L 662.810239 -287.955697 
L 665.221762 -288.389939 
L 667.633285 -288.820684 
L 670.044808 -289.247881 
L 672.456332 -289.671482 
L 674.867855 -290.091436 
L 677.279378 -290.507695 
L 679.690901 -290.920208 
L 682.102425 -291.328925 
L 684.513948 -291.733798 
L 686.925471 -292.134777 
L 689.336995 -292.531811 
L 691.748518 -292.924851 
L 694.160041 -293.313848 
L 696.571564 -293.698752 
L 698.983088 -294.079514 
L 701.394611 -294.456083 
L 703.806134 -294.82841 
L 706.217657 -295.196446 
L 708.629181 -295.56014 
L 711.040704 -295.919444 
L 713.452227 -296.274307 
L 715.86375 -296.62468 
L 718.275274 -296.970513 
L 720.686797 -297.311757 
L 723.09832 -297.648362 
L 725.509843 -297.980279 
L 727.921367 -298.307457 
L 730.33289 -298.629847 
L 732.744413 -298.9474 
L 735.155936 -299.260066 
L 737.56746 -299.567795 
L 739.978983 -299.870537 
L 742.390506 -300.168244 
L 744.802029 -300.460865 
L 747.213553 -300.74835 
L 749.625076 -301.030651 
L 752.036599 -301.307717 
L 754.448123 -301.579498 
L 756.859646 -301.845946 
L 759.271169 -302.107011 
L 761.682692 -302.362642 
L 764.094216 -302.612791 
L 766.505739 -302.857407 
L 768.917262 -303.096441 
L 771.328785 -303.329844 
L 773.740309 -303.557565 
L 776.151832 -303.779556 
L 778.563355 -303.995766 
L 780.974878 -304.206145 
L 783.386402 -304.410645 
L 785.797925 -304.609216 
L 788.209448 -304.801807 
L 790.620971 -304.98837 
L 793.032495 -305.168855 
L 795.444018 -305.343211 
L 797.855541 -305.51139 
L 800.267064 -305.673342 
L 802.678588 -305.829016 
L 805.090111 -305.978365 
L 807.501634 -306.121337 
L 809.913157 -306.257883 
L 812.324681 -306.387954 
L 814.736204 -306.5115 
L 817.147727 -306.628472 
L 817.147727 -44.84 
L 817.147727 -44.84 
L 814.736204 -44.84 
L 812.324681 -44.84 
L 809.913157 -44.84 
L 807.501634 -44.84 
L 805.090111 -44.84 
L 802.678588 -44.84 
L 800.267064 -44.84 
L 797.855541 -44.84 
L 795.444018 -44.84 
L 793.032495 -44.84 
L 790.620971 -44.84 
L 788.209448 -44.84 
L 785.797925 -44.84 
L 783.386402 -44.84 
L 780.974878 -44.84 
L 778.563355 -44.84 
L 776.151832 -44.84 
L 773.740309 -44.84 
L 771.328785 -44.84 
L 768.917262 -44.84 
L 766.505739 -44.84 
L 764.094216 -44.84 
L 761.682692 -44.84 
L 759.271169 -44.84 
L 756.859646 -44.84 
L 754.448123 -44.84 
L 752.036599 -44.84 
L 749.625076 -44.84 
L 747.213553 -44.84 
L 744.802029 -44.84 
L 742.390506 -44.84 
L 739.978983 -44.84 
L 737.56746 -44.84 
L 735.155936 -44.84 
L 732.744413 -44.84 
L 730.33289 -44.84 
L 727.921367 -44.84 
L 725.509843 -44.84 
L 723.09832 -44.84 
L 720.686797 -44.84 
L 718.275274 -44.84 
L 715.86375 -44.84 
L 713.452227 -44.84 
L 711.040704 -44.84 
L 708.629181 -44.84 
L 706.217657 -44.84 
L 703.806134 -44.84 
L 701.394611 -44.84 
L 698.983088 -44.84 
L 696.571564 -44.84 
L 694.160041 -44.84 
L 691.748518 -44.84 
L 689.336995 -44.84 
L 686.925471 -44.84 
L 684.513948 -44.84 
L 682.102425 -44.84 
L 679.690901 -44.84 
L 677.279378 -44.84 
L 674.867855 -44.84 
L 672.456332 -44.84 
L 670.044808 -44.84 
L 667.633285 -44.84 
L 665.221762 -44.84 
L 662.810239 -44.84 
L 660.398715 -44.84 
L 657.987192 -44.84 
L 655.575669 -44.84 
L 653.164146 -44.84 
L 650.752622 -44.84 
L 648.341099 -44.84 
L 645.929576 -44.84 
L 643.518053 -44.84 
L 641.106529 -44.84 
L 638.695006 -44.84 
L 636.283483 -44.84 
L 633.87196 -44.84 
L 631.460436 -44.84 
L 629.048913 -44.84 
L 626.63739 -44.84 
L 624.225867 -44.84 
L 621.814343 -44.84 
L 619.40282 -44.84 
L 616.991297 -44.84 
L 614.579773 -44.84 
L 612.16825 -44.84 
L 609.756727 -44.84 
L 607.345204 -44.84 
L 604.93368 -44.84 
L 602.522157 -44.84 
L 600.110634 -44.84 
L 597.699111 -44.84 
L 595.287587 -44.84 
L 592.876064 -44.84 
L 590.464541 -44.84 
L 588.053018 -44.84 
L 585.641494 -44.84 
L 583.229971 -44.84 
L 580.818448 -44.84 
L 578.406925 -44.84 
L 575.995401 -44.84 
L 573.583878 -44.84 
L 571.172355 -44.84 
L 568.760832 -44.84 
L 566.349308 -44.84 
L 563.937785 -44.84 
L 561.526262 -44.84 
L 559.114739 -44.84 
L 556.703215 -44.84 
L 554.291692 -44.84 
L 551.880169 -44.84 
L 549.468645 -44.84 
L 547.057122 -44.84 
L 544.645599 -44.84 
L 542.234076 -44.84 
L 539.822552 -44.84 
L 537.411029 -44.84 
L 534.999506 -44.84 
L 532.587983 -44.84 
L 530.176459 -44.84 
L 527.764936 -44.84 
L 525.353413 -44.84 
L 522.94189 -44.84 
L 520.530366 -44.84 
L 518.118843 -44.84 
L 515.70732 -44.84 
L 513.295797 -44.84 
L 510.884273 -44.84 
L 508.47275 -44.84 
L 506.061227 -44.84 
L 503.649704 -44.84 
L 501.23818 -44.84 
L 498.826657 -44.84 
L 496.415134 -44.84 
L 494.003611 -44.84 
L 491.592087 -44.84 
L 489.180564 -44.84 
L 486.769041 -44.84 
L 484.357517 -44.84 
L 481.945994 -44.84 
L 479.534471 -44.84 
L 477.122948 -44.84 
L 474.711424 -44.84 
L 472.299901 -44.84 
L 469.888378 -44.84 
L 467.476855 -44.84 
L 465.065331 -44.84 
L 462.653808 -44.84 
L 460.242285 -44.84 
L 457.830762 -44.84 
L 455.419238 -44.84 
L 453.007715 -44.84 
L 450.596192 -44.84 
L 448.184669 -44.84 
L 445.773145 -44.84 
L 443.361622 -44.84 
L 440.950099 -44.84 
L 438.538576 -44.84 
L 436.127052 -44.84 
L 433.715529 -44.84 
L 431.304006 -44.84 
L 428.892483 -44.84 
L 426.480959 -44.84 
L 424.069436 -44.84 
L 421.657913 -44.84 
L 419.246389 -44.84 
L 416.834866 -44.84 
L 414.423343 -44.84 
L 412.01182 -44.84 
L 409.600296 -44.84 
L 407.188773 -44.84 
L 404.77725 -44.84 
L 402.365727 -44.84 
L 399.954203 -44.84 
L 397.54268 -44.84 
L 395.131157 -44.84 
L 392.719634 -44.84 
L 390.30811 -44.84 
L 387.896587 -44.84 
L 385.485064 -44.84 
L 383.073541 -44.84 
L 380.662017 -44.84 
L 378.250494 -44.84 
L 375.838971 -44.84 
L 373.427448 -44.84 
L 371.015924 -44.84 
L 368.604401 -44.84 
L 366.192878 -44.84 
L 363.781355 -44.84 
L 361.369831 -44.84 
L 358.958308 -44.84 
L 356.546785 -44.84 
L 354.135261 -44.84 
L 351.723738 -44.84 
L 349.312215 -44.84 
L 346.900692 -44.84 
L 344.489168 -44.84 
L 342.077645 -44.84 
L 339.666122 -44.84 
L 337.254599 -44.84 
L 334.843075 -44.84 
L 332.431552 -44.84 
L 330.020029 -44.84 
L 327.608506 -44.84 
L 325.196982 -44.84 
L 322.785459 -44.84 
L 320.373936 -44.84 
L 317.962413 -44.84 
L 315.550889 -44.84 
L 313.139366 -44.84 
L 310.727843 -44.84 
L 308.31632 -44.84 
L 305.904796 -44.84 
L 303.493273 -44.84 
L 301.08175 -44.84 
L 298.670227 -44.84 
L 296.258703 -44.84 
L 293.84718 -44.84 
L 291.435657 -44.84 
L 289.024133 -44.84 
L 286.61261 -44.84 
L 284.201087 -44.84 
L 281.789564 -44.84 
L 279.37804 -44.84 
L 276.966517 -44.84 
L 274.554994 -44.84 
L 272.143471 -44.84 
L 269.731947 -44.84 
L 267.320424 -44.84 
L 264.908901 -44.84 
L 262.497378 -44.84 
L 260.085854 -44.84 
L 257.674331 -44.84 
L 255.262808 -44.84 
L 252.851285 -44.84 
L 250.439761 -44.84 
L 248.028238 -44.84 
L 245.616715 -44.84 
L 243.205192 -44.84 
L 240.793668 -44.84 
L 238.382145 -44.84 
L 235.970622 -44.84 
L 233.559099 -44.84 
L 231.147575 -44.84 
L 228.736052 -44.84 
L 226.324529 -44.84 
L 223.913005 -44.84 
L 221.501482 -44.84 
L 219.089959 -44.84 
L 216.678436 -44.84 
L 214.266912 -44.84 
L 211.855389 -44.84 
L 209.443866 -44.84 
L 207.032343 -44.84 
L 204.620819 -44.84 
L 202.209296 -44.84 
L 199.797773 -44.84 
L 197.38625 -44.84 
L 194.974726 -44.84 
L 192.563203 -44.84 
L 190.15168 -44.84 
L 187.740157 -44.84 
L 185.328633 -44.84 
L 182.91711 -44.84 
L 180.505587 -44.84 
L 178.094064 -44.84 
L 175.68254 -44.84 
L 173.271017 -44.84 
L 170.859494 -44.84 
L 168.447971 -44.84 
L 166.036447 -44.84 
L 163.624924 -44.84 
L 161.213401 -44.84 
L 158.801877 -44.84 
L 156.390354 -44.84 
L 153.978831 -44.84 
L 151.567308 -44.84 
L 149.155784 -44.84 
L 146.744261 -44.84 
L 144.332738 -44.84 
L 141.921215 -44.84 
L 139.509691 -44.84 
L 137.098168 -44.84 
L 134.686645 -44.84 
L 132.275122 -44.84 
L 129.863598 -44.84 
L 127.452075 -44.84 
L 125.040552 -44.84 
L 122.629029 -44.84 
L 120.217505 -44.84 
L 117.805982 -44.84 
L 115.394459 -44.84 
L 112.982936 -44.84 
L 110.571412 -44.84 
L 108.159889 -44.84 
L 105.748366 -44.84 
L 103.336843 -44.84 
L 100.925319 -44.84 
L 98.513796 -44.84 
L 96.102273 -44.84 
z
" style="stroke: #1f77b4; stroke-opacity: 0.2"/>
    </defs>
    <g clip-path="url(#pbe6b30c807)">
     <use xlink:href="#mc700f2e09b" x="0" y="360" style="fill: #1f77b4; fill-opacity: 0.2; stroke: #1f77b4; stroke-opacity: 0.2"/>
    </g>
   </g>
   <g id="matplotlib.axis_1">
    <g id="xtick_1">
     <g id="line2d_1">
      <path d="M 96.102273 315.16 
L 96.102273 28.32 
" clip-path="url(#pbe6b30c807)" style="fill: none; stroke-dasharray: 2.96,1.28; stroke-dashoffset: 0; stroke: #b0b0b0; stroke-opacity: 0.5; stroke-width: 0.8"/>
     </g>
     <g id="line2d_2">
      <defs>
       <path id="ma6130bdb7b" d="M 0 0 
L 0 3.5 
" style="stroke: #000000; stroke-width: 0.8"/>
      </defs>
      <g>
       <use xlink:href="#ma6130bdb7b" x="96.102273" y="315.16" style="stroke: #000000; stroke-width: 0.8"/>
      </g>
     </g>
     <g id="text_1">
      <!-- 1 -->
      <g transform="translate(92.921023 329.758438) scale(0.1 -0.1)">
       <defs>
        <path id="DejaVuSans-31" d="M 794 531 
L 1825 531 
L 1825 4091 
L 703 3866 
L 703 4441 
L 1819 4666 
L 2450 4666 
L 2450 531 
L 3481 531 
L 3481 0 
L 794 0 
L 794 531 
z
" transform="scale(0.015625)"/>
       </defs>
       <use xlink:href="#DejaVuSans-31"/>
      </g>
     </g>
    </g>
    <g id="xtick_2">
     <g id="line2d_3">
      <path d="M 276.363636 315.16 
L 276.363636 28.32 
" clip-path="url(#pbe6b30c807)" style="fill: none; stroke-dasharray: 2.96,1.28; stroke-dashoffset: 0; stroke: #b0b0b0; stroke-opacity: 0.5; stroke-width: 0.8"/>
     </g>
     <g id="line2d_4">
      <g>
       <use xlink:href="#ma6130bdb7b" x="276.363636" y="315.16" style="stroke: #000000; stroke-width: 0.8"/>
      </g>
     </g>
     <g id="text_2">
      <!-- 2 -->
      <g transform="translate(273.182386 329.758438) scale(0.1 -0.1)">
       <defs>
        <path id="DejaVuSans-32" d="M 1228 531 
L 3431 531 
L 3431 0 
L 469 0 
L 469 531 
Q 828 903 1448 1529 
Q 2069 2156 2228 2338 
Q 2531 2678 2651 2914 
Q 2772 3150 2772 3378 
Q 2772 3750 2511 3984 
Q 2250 4219 1831 4219 
Q 1534 4219 1204 4116 
Q 875 4013 500 3803 
L 500 4441 
Q 881 4594 1212 4672 
Q 1544 4750 1819 4750 
Q 2544 4750 2975 4387 
Q 3406 4025 3406 3419 
Q 3406 3131 3298 2873 
Q 3191 2616 2906 2266 
Q 2828 2175 2409 1742 
Q 1991 1309 1228 531 
z
" transform="scale(0.015625)"/>
       </defs>
       <use xlink:href="#DejaVuSans-32"/>
      </g>
     </g>
    </g>
    <g id="xtick_3">
     <g id="line2d_5">
      <path d="M 456.625 315.16 
L 456.625 28.32 
" clip-path="url(#pbe6b30c807)" style="fill: none; stroke-dasharray: 2.96,1.28; stroke-dashoffset: 0; stroke: #b0b0b0; stroke-opacity: 0.5; stroke-width: 0.8"/>
     </g>
     <g id="line2d_6">
      <g>
       <use xlink:href="#ma6130bdb7b" x="456.625" y="315.16" style="stroke: #000000; stroke-width: 0.8"/>
      </g>
     </g>
     <g id="text_3">
      <!-- 3 -->
      <g transform="translate(453.44375 329.758438) scale(0.1 -0.1)">
       <defs>
        <path id="DejaVuSans-33" d="M 2597 2516 
Q 3050 2419 3304 2112 
Q 3559 1806 3559 1356 
Q 3559 666 3084 287 
Q 2609 -91 1734 -91 
Q 1441 -91 1130 -33 
Q 819 25 488 141 
L 488 750 
Q 750 597 1062 519 
Q 1375 441 1716 441 
Q 2309 441 2620 675 
Q 2931 909 2931 1356 
Q 2931 1769 2642 2001 
Q 2353 2234 1838 2234 
L 1294 2234 
L 1294 2753 
L 1863 2753 
Q 2328 2753 2575 2939 
Q 2822 3125 2822 3475 
Q 2822 3834 2567 4026 
Q 2313 4219 1838 4219 
Q 1578 4219 1281 4162 
Q 984 4106 628 3988 
L 628 4550 
Q 988 4650 1302 4700 
Q 1616 4750 1894 4750 
Q 2613 4750 3031 4423 
Q 3450 4097 3450 3541 
Q 3450 3153 3228 2886 
Q 3006 2619 2597 2516 
z
" transform="scale(0.015625)"/>
       </defs>
       <use xlink:href="#DejaVuSans-33"/>
      </g>
     </g>
    </g>
    <g id="xtick_4">
     <g id="line2d_7">
      <path d="M 636.886364 315.16 
L 636.886364 28.32 
" clip-path="url(#pbe6b30c807)" style="fill: none; stroke-dasharray: 2.96,1.28; stroke-dashoffset: 0; stroke: #b0b0b0; stroke-opacity: 0.5; stroke-width: 0.8"/>
     </g>
     <g id="line2d_8">
      <g>
       <use xlink:href="#ma6130bdb7b" x="636.886364" y="315.16" style="stroke: #000000; stroke-width: 0.8"/>
      </g>
     </g>
     <g id="text_4">
      <!-- 4 -->
      <g transform="translate(633.705114 329.758438) scale(0.1 -0.1)">
       <defs>
        <path id="DejaVuSans-34" d="M 2419 4116 
L 825 1625 
L 2419 1625 
L 2419 4116 
z
M 2253 4666 
L 3047 4666 
L 3047 1625 
L 3713 1625 
L 3713 1100 
L 3047 1100 
L 3047 0 
L 2419 0 
L 2419 1100 
L 313 1100 
L 313 1709 
L 2253 4666 
z
" transform="scale(0.015625)"/>
       </defs>
       <use xlink:href="#DejaVuSans-34"/>
      </g>
     </g>
    </g>
    <g id="xtick_5">
     <g id="line2d_9">
      <path d="M 817.147727 315.16 
L 817.147727 28.32 
" clip-path="url(#pbe6b30c807)" style="fill: none; stroke-dasharray: 2.96,1.28; stroke-dashoffset: 0; stroke: #b0b0b0; stroke-opacity: 0.5; stroke-width: 0.8"/>
     </g>
     <g id="line2d_10">
      <g>
       <use xlink:href="#ma6130bdb7b" x="817.147727" y="315.16" style="stroke: #000000; stroke-width: 0.8"/>
      </g>
     </g>
     <g id="text_5">
      <!-- 5 -->
      <g transform="translate(813.966477 329.758438) scale(0.1 -0.1)">
       <defs>
        <path id="DejaVuSans-35" d="M 691 4666 
L 3169 4666 
L 3169 4134 
L 1269 4134 
L 1269 2991 
Q 1406 3038 1543 3061 
Q 1681 3084 1819 3084 
Q 2600 3084 3056 2656 
Q 3513 2228 3513 1497 
Q 3513 744 3044 326 
Q 2575 -91 1722 -91 
Q 1428 -91 1123 -41 
Q 819 9 494 109 
L 494 744 
Q 775 591 1075 516 
Q 1375 441 1709 441 
Q 2250 441 2565 725 
Q 2881 1009 2881 1497 
Q 2881 1984 2565 2268 
Q 2250 2553 1709 2553 
Q 1456 2553 1204 2497 
Q 953 2441 691 2322 
L 691 4666 
z
" transform="scale(0.015625)"/>
       </defs>
       <use xlink:href="#DejaVuSans-35"/>
      </g>
     </g>
    </g>
    <g id="text_6">
     <!-- Contest Number -->
     <g transform="translate(403.330078 345.716094) scale(0.13 -0.13)">
      <defs>
       <path id="DejaVuSans-43" d="M 4122 4306 
L 4122 3641 
Q 3803 3938 3442 4084 
Q 3081 4231 2675 4231 
Q 1875 4231 1450 3742 
Q 1025 3253 1025 2328 
Q 1025 1406 1450 917 
Q 1875 428 2675 428 
Q 3081 428 3442 575 
Q 3803 722 4122 1019 
L 4122 359 
Q 3791 134 3420 21 
Q 3050 -91 2638 -91 
Q 1578 -91 968 557 
Q 359 1206 359 2328 
Q 359 3453 968 4101 
Q 1578 4750 2638 4750 
Q 3056 4750 3426 4639 
Q 3797 4528 4122 4306 
z
" transform="scale(0.015625)"/>
       <path id="DejaVuSans-6f" d="M 1959 3097 
Q 1497 3097 1228 2736 
Q 959 2375 959 1747 
Q 959 1119 1226 758 
Q 1494 397 1959 397 
Q 2419 397 2687 759 
Q 2956 1122 2956 1747 
Q 2956 2369 2687 2733 
Q 2419 3097 1959 3097 
z
M 1959 3584 
Q 2709 3584 3137 3096 
Q 3566 2609 3566 1747 
Q 3566 888 3137 398 
Q 2709 -91 1959 -91 
Q 1206 -91 779 398 
Q 353 888 353 1747 
Q 353 2609 779 3096 
Q 1206 3584 1959 3584 
z
" transform="scale(0.015625)"/>
       <path id="DejaVuSans-6e" d="M 3513 2113 
L 3513 0 
L 2938 0 
L 2938 2094 
Q 2938 2591 2744 2837 
Q 2550 3084 2163 3084 
Q 1697 3084 1428 2787 
Q 1159 2491 1159 1978 
L 1159 0 
L 581 0 
L 581 3500 
L 1159 3500 
L 1159 2956 
Q 1366 3272 1645 3428 
Q 1925 3584 2291 3584 
Q 2894 3584 3203 3211 
Q 3513 2838 3513 2113 
z
" transform="scale(0.015625)"/>
       <path id="DejaVuSans-74" d="M 1172 4494 
L 1172 3500 
L 2356 3500 
L 2356 3053 
L 1172 3053 
L 1172 1153 
Q 1172 725 1289 603 
Q 1406 481 1766 481 
L 2356 481 
L 2356 0 
L 1766 0 
Q 1100 0 847 248 
Q 594 497 594 1153 
L 594 3053 
L 172 3053 
L 172 3500 
L 594 3500 
L 594 4494 
L 1172 4494 
z
" transform="scale(0.015625)"/>
       <path id="DejaVuSans-65" d="M 3597 1894 
L 3597 1613 
L 953 1613 
Q 991 1019 1311 708 
Q 1631 397 2203 397 
Q 2534 397 2845 478 
Q 3156 559 3463 722 
L 3463 178 
Q 3153 47 2828 -22 
Q 2503 -91 2169 -91 
Q 1331 -91 842 396 
Q 353 884 353 1716 
Q 353 2575 817 3079 
Q 1281 3584 2069 3584 
Q 2775 3584 3186 3129 
Q 3597 2675 3597 1894 
z
M 3022 2063 
Q 3016 2534 2758 2815 
Q 2500 3097 2075 3097 
Q 1594 3097 1305 2825 
Q 1016 2553 972 2059 
L 3022 2063 
z
" transform="scale(0.015625)"/>
       <path id="DejaVuSans-73" d="M 2834 3397 
L 2834 2853 
Q 2591 2978 2328 3040 
Q 2066 3103 1784 3103 
Q 1356 3103 1142 2972 
Q 928 2841 928 2578 
Q 928 2378 1081 2264 
Q 1234 2150 1697 2047 
L 1894 2003 
Q 2506 1872 2764 1633 
Q 3022 1394 3022 966 
Q 3022 478 2636 193 
Q 2250 -91 1575 -91 
Q 1294 -91 989 -36 
Q 684 19 347 128 
L 347 722 
Q 666 556 975 473 
Q 1284 391 1588 391 
Q 1994 391 2212 530 
Q 2431 669 2431 922 
Q 2431 1156 2273 1281 
Q 2116 1406 1581 1522 
L 1381 1569 
Q 847 1681 609 1914 
Q 372 2147 372 2553 
Q 372 3047 722 3315 
Q 1072 3584 1716 3584 
Q 2034 3584 2315 3537 
Q 2597 3491 2834 3397 
z
" transform="scale(0.015625)"/>
       <path id="DejaVuSans-20" transform="scale(0.015625)"/>
       <path id="DejaVuSans-4e" d="M 628 4666 
L 1478 4666 
L 3547 763 
L 3547 4666 
L 4159 4666 
L 4159 0 
L 3309 0 
L 1241 3903 
L 1241 0 
L 628 0 
L 628 4666 
z
" transform="scale(0.015625)"/>
       <path id="DejaVuSans-75" d="M 544 1381 
L 544 3500 
L 1119 3500 
L 1119 1403 
Q 1119 906 1312 657 
Q 1506 409 1894 409 
Q 2359 409 2629 706 
Q 2900 1003 2900 1516 
L 2900 3500 
L 3475 3500 
L 3475 0 
L 2900 0 
L 2900 538 
Q 2691 219 2414 64 
Q 2138 -91 1772 -91 
Q 1169 -91 856 284 
Q 544 659 544 1381 
z
M 1991 3584 
L 1991 3584 
z
" transform="scale(0.015625)"/>
       <path id="DejaVuSans-6d" d="M 3328 2828 
Q 3544 3216 3844 3400 
Q 4144 3584 4550 3584 
Q 5097 3584 5394 3201 
Q 5691 2819 5691 2113 
L 5691 0 
L 5113 0 
L 5113 2094 
Q 5113 2597 4934 2840 
Q 4756 3084 4391 3084 
Q 3944 3084 3684 2787 
Q 3425 2491 3425 1978 
L 3425 0 
L 2847 0 
L 2847 2094 
Q 2847 2600 2669 2842 
Q 2491 3084 2119 3084 
Q 1678 3084 1418 2786 
Q 1159 2488 1159 1978 
L 1159 0 
L 581 0 
L 581 3500 
L 1159 3500 
L 1159 2956 
Q 1356 3278 1631 3431 
Q 1906 3584 2284 3584 
Q 2666 3584 2933 3390 
Q 3200 3197 3328 2828 
z
" transform="scale(0.015625)"/>
       <path id="DejaVuSans-62" d="M 3116 1747 
Q 3116 2381 2855 2742 
Q 2594 3103 2138 3103 
Q 1681 3103 1420 2742 
Q 1159 2381 1159 1747 
Q 1159 1113 1420 752 
Q 1681 391 2138 391 
Q 2594 391 2855 752 
Q 3116 1113 3116 1747 
z
M 1159 2969 
Q 1341 3281 1617 3432 
Q 1894 3584 2278 3584 
Q 2916 3584 3314 3078 
Q 3713 2572 3713 1747 
Q 3713 922 3314 415 
Q 2916 -91 2278 -91 
Q 1894 -91 1617 61 
Q 1341 213 1159 525 
L 1159 0 
L 581 0 
L 581 4863 
L 1159 4863 
L 1159 2969 
z
" transform="scale(0.015625)"/>
       <path id="DejaVuSans-72" d="M 2631 2963 
Q 2534 3019 2420 3045 
Q 2306 3072 2169 3072 
Q 1681 3072 1420 2755 
Q 1159 2438 1159 1844 
L 1159 0 
L 581 0 
L 581 3500 
L 1159 3500 
L 1159 2956 
Q 1341 3275 1631 3429 
Q 1922 3584 2338 3584 
Q 2397 3584 2469 3576 
Q 2541 3569 2628 3553 
L 2631 2963 
z
" transform="scale(0.015625)"/>
      </defs>
      <use xlink:href="#DejaVuSans-43"/>
      <use xlink:href="#DejaVuSans-6f" transform="translate(69.824219 0)"/>
      <use xlink:href="#DejaVuSans-6e" transform="translate(131.005859 0)"/>
      <use xlink:href="#DejaVuSans-74" transform="translate(194.384766 0)"/>
      <use xlink:href="#DejaVuSans-65" transform="translate(233.59375 0)"/>
      <use xlink:href="#DejaVuSans-73" transform="translate(295.117188 0)"/>
      <use xlink:href="#DejaVuSans-74" transform="translate(347.216797 0)"/>
      <use xlink:href="#DejaVuSans-20" transform="translate(386.425781 0)"/>
      <use xlink:href="#DejaVuSans-4e" transform="translate(418.212891 0)"/>
      <use xlink:href="#DejaVuSans-75" transform="translate(493.017578 0)"/>
      <use xlink:href="#DejaVuSans-6d" transform="translate(556.396484 0)"/>
      <use xlink:href="#DejaVuSans-62" transform="translate(653.808594 0)"/>
      <use xlink:href="#DejaVuSans-65" transform="translate(717.285156 0)"/>
      <use xlink:href="#DejaVuSans-72" transform="translate(778.808594 0)"/>
     </g>
    </g>
   </g>
   <g id="matplotlib.axis_2">
    <g id="ytick_1">
     <g id="line2d_11">
      <path d="M 60.05 279.58683 
L 853.2 279.58683 
" clip-path="url(#pbe6b30c807)" style="fill: none; stroke-dasharray: 2.96,1.28; stroke-dashoffset: 0; stroke: #b0b0b0; stroke-opacity: 0.5; stroke-width: 0.8"/>
     </g>
     <g id="line2d_12">
      <defs>
       <path id="mad128ff5eb" d="M 0 0 
L -3.5 0 
" style="stroke: #000000; stroke-width: 0.8"/>
      </defs>
      <g>
       <use xlink:href="#mad128ff5eb" x="60.05" y="279.58683" style="stroke: #000000; stroke-width: 0.8"/>
      </g>
     </g>
     <g id="text_7">
      <!-- 400 -->
      <g transform="translate(33.9625 283.386048) scale(0.1 -0.1)">
       <defs>
        <path id="DejaVuSans-30" d="M 2034 4250 
Q 1547 4250 1301 3770 
Q 1056 3291 1056 2328 
Q 1056 1369 1301 889 
Q 1547 409 2034 409 
Q 2525 409 2770 889 
Q 3016 1369 3016 2328 
Q 3016 3291 2770 3770 
Q 2525 4250 2034 4250 
z
M 2034 4750 
Q 2819 4750 3233 4129 
Q 3647 3509 3647 2328 
Q 3647 1150 3233 529 
Q 2819 -91 2034 -91 
Q 1250 -91 836 529 
Q 422 1150 422 2328 
Q 422 3509 836 4129 
Q 1250 4750 2034 4750 
z
" transform="scale(0.015625)"/>
       </defs>
       <use xlink:href="#DejaVuSans-34"/>
       <use xlink:href="#DejaVuSans-30" transform="translate(63.623047 0)"/>
       <use xlink:href="#DejaVuSans-30" transform="translate(127.246094 0)"/>
      </g>
     </g>
    </g>
    <g id="ytick_2">
     <g id="line2d_13">
      <path d="M 60.05 229.483773 
L 853.2 229.483773 
" clip-path="url(#pbe6b30c807)" style="fill: none; stroke-dasharray: 2.96,1.28; stroke-dashoffset: 0; stroke: #b0b0b0; stroke-opacity: 0.5; stroke-width: 0.8"/>
     </g>
     <g id="line2d_14">
      <g>
       <use xlink:href="#mad128ff5eb" x="60.05" y="229.483773" style="stroke: #000000; stroke-width: 0.8"/>
      </g>
     </g>
     <g id="text_8">
      <!-- 600 -->
      <g transform="translate(33.9625 233.282992) scale(0.1 -0.1)">
       <defs>
        <path id="DejaVuSans-36" d="M 2113 2584 
Q 1688 2584 1439 2293 
Q 1191 2003 1191 1497 
Q 1191 994 1439 701 
Q 1688 409 2113 409 
Q 2538 409 2786 701 
Q 3034 994 3034 1497 
Q 3034 2003 2786 2293 
Q 2538 2584 2113 2584 
z
M 3366 4563 
L 3366 3988 
Q 3128 4100 2886 4159 
Q 2644 4219 2406 4219 
Q 1781 4219 1451 3797 
Q 1122 3375 1075 2522 
Q 1259 2794 1537 2939 
Q 1816 3084 2150 3084 
Q 2853 3084 3261 2657 
Q 3669 2231 3669 1497 
Q 3669 778 3244 343 
Q 2819 -91 2113 -91 
Q 1303 -91 875 529 
Q 447 1150 447 2328 
Q 447 3434 972 4092 
Q 1497 4750 2381 4750 
Q 2619 4750 2861 4703 
Q 3103 4656 3366 4563 
z
" transform="scale(0.015625)"/>
       </defs>
       <use xlink:href="#DejaVuSans-36"/>
       <use xlink:href="#DejaVuSans-30" transform="translate(63.623047 0)"/>
       <use xlink:href="#DejaVuSans-30" transform="translate(127.246094 0)"/>
      </g>
     </g>
    </g>
    <g id="ytick_3">
     <g id="line2d_15">
      <path d="M 60.05 179.380716 
L 853.2 179.380716 
" clip-path="url(#pbe6b30c807)" style="fill: none; stroke-dasharray: 2.96,1.28; stroke-dashoffset: 0; stroke: #b0b0b0; stroke-opacity: 0.5; stroke-width: 0.8"/>
     </g>
     <g id="line2d_16">
      <g>
       <use xlink:href="#mad128ff5eb" x="60.05" y="179.380716" style="stroke: #000000; stroke-width: 0.8"/>
      </g>
     </g>
     <g id="text_9">
      <!-- 800 -->
      <g transform="translate(33.9625 183.179935) scale(0.1 -0.1)">
       <defs>
        <path id="DejaVuSans-38" d="M 2034 2216 
Q 1584 2216 1326 1975 
Q 1069 1734 1069 1313 
Q 1069 891 1326 650 
Q 1584 409 2034 409 
Q 2484 409 2743 651 
Q 3003 894 3003 1313 
Q 3003 1734 2745 1975 
Q 2488 2216 2034 2216 
z
M 1403 2484 
Q 997 2584 770 2862 
Q 544 3141 544 3541 
Q 544 4100 942 4425 
Q 1341 4750 2034 4750 
Q 2731 4750 3128 4425 
Q 3525 4100 3525 3541 
Q 3525 3141 3298 2862 
Q 3072 2584 2669 2484 
Q 3125 2378 3379 2068 
Q 3634 1759 3634 1313 
Q 3634 634 3220 271 
Q 2806 -91 2034 -91 
Q 1263 -91 848 271 
Q 434 634 434 1313 
Q 434 1759 690 2068 
Q 947 2378 1403 2484 
z
M 1172 3481 
Q 1172 3119 1398 2916 
Q 1625 2713 2034 2713 
Q 2441 2713 2670 2916 
Q 2900 3119 2900 3481 
Q 2900 3844 2670 4047 
Q 2441 4250 2034 4250 
Q 1625 4250 1398 4047 
Q 1172 3844 1172 3481 
z
" transform="scale(0.015625)"/>
       </defs>
       <use xlink:href="#DejaVuSans-38"/>
       <use xlink:href="#DejaVuSans-30" transform="translate(63.623047 0)"/>
       <use xlink:href="#DejaVuSans-30" transform="translate(127.246094 0)"/>
      </g>
     </g>
    </g>
    <g id="ytick_4">
     <g id="line2d_17">
      <path d="M 60.05 129.277659 
L 853.2 129.277659 
" clip-path="url(#pbe6b30c807)" style="fill: none; stroke-dasharray: 2.96,1.28; stroke-dashoffset: 0; stroke: #b0b0b0; stroke-opacity: 0.5; stroke-width: 0.8"/>
     </g>
     <g id="line2d_18">
      <g>
       <use xlink:href="#mad128ff5eb" x="60.05" y="129.277659" style="stroke: #000000; stroke-width: 0.8"/>
      </g>
     </g>
     <g id="text_10">
      <!-- 1000 -->
      <g transform="translate(27.6 133.076878) scale(0.1 -0.1)">
       <use xlink:href="#DejaVuSans-31"/>
       <use xlink:href="#DejaVuSans-30" transform="translate(63.623047 0)"/>
       <use xlink:href="#DejaVuSans-30" transform="translate(127.246094 0)"/>
       <use xlink:href="#DejaVuSans-30" transform="translate(190.869141 0)"/>
      </g>
     </g>
    </g>
    <g id="ytick_5">
     <g id="line2d_19">
      <path d="M 60.05 79.174603 
L 853.2 79.174603 
" clip-path="url(#pbe6b30c807)" style="fill: none; stroke-dasharray: 2.96,1.28; stroke-dashoffset: 0; stroke: #b0b0b0; stroke-opacity: 0.5; stroke-width: 0.8"/>
     </g>
     <g id="line2d_20">
      <g>
       <use xlink:href="#mad128ff5eb" x="60.05" y="79.174603" style="stroke: #000000; stroke-width: 0.8"/>
      </g>
     </g>
     <g id="text_11">
      <!-- 1200 -->
      <g transform="translate(27.6 82.973821) scale(0.1 -0.1)">
       <use xlink:href="#DejaVuSans-31"/>
       <use xlink:href="#DejaVuSans-32" transform="translate(63.623047 0)"/>
       <use xlink:href="#DejaVuSans-30" transform="translate(127.246094 0)"/>
       <use xlink:href="#DejaVuSans-30" transform="translate(190.869141 0)"/>
      </g>
     </g>
    </g>
    <g id="ytick_6">
     <g id="line2d_21">
      <path d="M 60.05 29.071546 
L 853.2 29.071546 
" clip-path="url(#pbe6b30c807)" style="fill: none; stroke-dasharray: 2.96,1.28; stroke-dashoffset: 0; stroke: #b0b0b0; stroke-opacity: 0.5; stroke-width: 0.8"/>
     </g>
     <g id="line2d_22">
      <g>
       <use xlink:href="#mad128ff5eb" x="60.05" y="29.071546" style="stroke: #000000; stroke-width: 0.8"/>
      </g>
     </g>
     <g id="text_12">
      <!-- 1400 -->
      <g transform="translate(27.6 32.870765) scale(0.1 -0.1)">
       <use xlink:href="#DejaVuSans-31"/>
       <use xlink:href="#DejaVuSans-34" transform="translate(63.623047 0)"/>
       <use xlink:href="#DejaVuSans-30" transform="translate(127.246094 0)"/>
       <use xlink:href="#DejaVuSans-30" transform="translate(190.869141 0)"/>
      </g>
     </g>
    </g>
    <g id="text_13">
     <!-- Rating -->
     <g transform="translate(20.896406 192.693359) rotate(-90) scale(0.13 -0.13)">
      <defs>
       <path id="DejaVuSans-52" d="M 2841 2188 
Q 3044 2119 3236 1894 
Q 3428 1669 3622 1275 
L 4263 0 
L 3584 0 
L 2988 1197 
Q 2756 1666 2539 1819 
Q 2322 1972 1947 1972 
L 1259 1972 
L 1259 0 
L 628 0 
L 628 4666 
L 2053 4666 
Q 2853 4666 3247 4331 
Q 3641 3997 3641 3322 
Q 3641 2881 3436 2590 
Q 3231 2300 2841 2188 
z
M 1259 4147 
L 1259 2491 
L 2053 2491 
Q 2509 2491 2742 2702 
Q 2975 2913 2975 3322 
Q 2975 3731 2742 3939 
Q 2509 4147 2053 4147 
L 1259 4147 
z
" transform="scale(0.015625)"/>
       <path id="DejaVuSans-61" d="M 2194 1759 
Q 1497 1759 1228 1600 
Q 959 1441 959 1056 
Q 959 750 1161 570 
Q 1363 391 1709 391 
Q 2188 391 2477 730 
Q 2766 1069 2766 1631 
L 2766 1759 
L 2194 1759 
z
M 3341 1997 
L 3341 0 
L 2766 0 
L 2766 531 
Q 2569 213 2275 61 
Q 1981 -91 1556 -91 
Q 1019 -91 701 211 
Q 384 513 384 1019 
Q 384 1609 779 1909 
Q 1175 2209 1959 2209 
L 2766 2209 
L 2766 2266 
Q 2766 2663 2505 2880 
Q 2244 3097 1772 3097 
Q 1472 3097 1187 3025 
Q 903 2953 641 2809 
L 641 3341 
Q 956 3463 1253 3523 
Q 1550 3584 1831 3584 
Q 2591 3584 2966 3190 
Q 3341 2797 3341 1997 
z
" transform="scale(0.015625)"/>
       <path id="DejaVuSans-69" d="M 603 3500 
L 1178 3500 
L 1178 0 
L 603 0 
L 603 3500 
z
M 603 4863 
L 1178 4863 
L 1178 4134 
L 603 4134 
L 603 4863 
z
" transform="scale(0.015625)"/>
       <path id="DejaVuSans-67" d="M 2906 1791 
Q 2906 2416 2648 2759 
Q 2391 3103 1925 3103 
Q 1463 3103 1205 2759 
Q 947 2416 947 1791 
Q 947 1169 1205 825 
Q 1463 481 1925 481 
Q 2391 481 2648 825 
Q 2906 1169 2906 1791 
z
M 3481 434 
Q 3481 -459 3084 -895 
Q 2688 -1331 1869 -1331 
Q 1566 -1331 1297 -1286 
Q 1028 -1241 775 -1147 
L 775 -588 
Q 1028 -725 1275 -790 
Q 1522 -856 1778 -856 
Q 2344 -856 2625 -561 
Q 2906 -266 2906 331 
L 2906 616 
Q 2728 306 2450 153 
Q 2172 0 1784 0 
Q 1141 0 747 490 
Q 353 981 353 1791 
Q 353 2603 747 3093 
Q 1141 3584 1784 3584 
Q 2172 3584 2450 3431 
Q 2728 3278 2906 2969 
L 2906 3500 
L 3481 3500 
L 3481 434 
z
" transform="scale(0.015625)"/>
      </defs>
      <use xlink:href="#DejaVuSans-52"/>
      <use xlink:href="#DejaVuSans-61" transform="translate(67.232422 0)"/>
      <use xlink:href="#DejaVuSans-74" transform="translate(128.511719 0)"/>
      <use xlink:href="#DejaVuSans-69" transform="translate(167.720703 0)"/>
      <use xlink:href="#DejaVuSans-6e" transform="translate(195.503906 0)"/>
      <use xlink:href="#DejaVuSans-67" transform="translate(258.882812 0)"/>
     </g>
    </g>
   </g>
   <g id="line2d_23">
    <path d="M 96.102273 290.108472 
L 105.748366 280.557126 
L 115.394459 271.411594 
L 125.040552 262.660368 
L 134.686645 254.291941 
L 144.332738 246.294808 
L 153.978831 238.657462 
L 163.624924 231.368396 
L 173.271017 224.416105 
L 182.91711 217.789082 
L 192.563203 211.475819 
L 202.209296 205.464812 
L 211.855389 199.744554 
L 221.501482 194.303537 
L 231.147575 189.130256 
L 240.793668 184.213205 
L 250.439761 179.540876 
L 260.085854 175.101764 
L 269.731947 170.884362 
L 279.37804 166.877164 
L 289.024133 163.068663 
L 301.08175 158.569926 
L 313.139366 154.341201 
L 325.196982 150.360014 
L 337.254599 146.603893 
L 351.723738 142.361992 
L 366.192878 138.372988 
L 383.073541 133.986978 
L 399.954203 129.830665 
L 421.657913 124.725107 
L 472.299901 113.166605 
L 561.526262 92.7833 
L 590.464541 86.451683 
L 614.579773 81.387165 
L 636.283483 77.037599 
L 657.987192 72.92308 
L 677.279378 69.492305 
L 696.571564 66.301248 
L 713.452227 63.725693 
L 730.33289 61.370153 
L 747.213553 59.25165 
L 764.094216 57.387209 
L 778.563355 56.004234 
L 793.032495 54.831145 
L 807.501634 53.878663 
L 817.147727 53.371528 
L 817.147727 53.371528 
" clip-path="url(#pbe6b30c807)" style="fill: none; stroke: #1f77b4; stroke-opacity: 0.9; stroke-width: 3; stroke-linecap: square"/>
   </g>
   <g id="patch_3">
    <path d="M 60.05 315.16 
L 60.05 28.32 
" style="fill: none; stroke: #000000; stroke-width: 0.8; stroke-linejoin: miter; stroke-linecap: square"/>
   </g>
   <g id="patch_4">
    <path d="M 853.2 315.16 
L 853.2 28.32 
" style="fill: none; stroke: #000000; stroke-width: 0.8; stroke-linejoin: miter; stroke-linecap: square"/>
   </g>
   <g id="patch_5">
    <path d="M 60.05 315.16 
L 853.2 315.16 
" style="fill: none; stroke: #000000; stroke-width: 0.8; stroke-linejoin: miter; stroke-linecap: square"/>
   </g>
   <g id="patch_6">
    <path d="M 60.05 28.32 
L 853.2 28.32 
" style="fill: none; stroke: #000000; stroke-width: 0.8; stroke-linejoin: miter; stroke-linecap: square"/>
   </g>
   <g id="text_14">
    <!-- Codeforces Rating Graph for Jaardo -->
    <g transform="translate(296.37375 22.32) scale(0.16 -0.16)">
     <defs>
      <path id="DejaVuSans-Bold-43" d="M 4288 256 
Q 3956 84 3597 -3 
Q 3238 -91 2847 -91 
Q 1681 -91 1000 561 
Q 319 1213 319 2328 
Q 319 3447 1000 4098 
Q 1681 4750 2847 4750 
Q 3238 4750 3597 4662 
Q 3956 4575 4288 4403 
L 4288 3438 
Q 3953 3666 3628 3772 
Q 3303 3878 2944 3878 
Q 2300 3878 1931 3465 
Q 1563 3053 1563 2328 
Q 1563 1606 1931 1193 
Q 2300 781 2944 781 
Q 3303 781 3628 887 
Q 3953 994 4288 1222 
L 4288 256 
z
" transform="scale(0.015625)"/>
      <path id="DejaVuSans-Bold-6f" d="M 2203 2784 
Q 1831 2784 1636 2517 
Q 1441 2250 1441 1747 
Q 1441 1244 1636 976 
Q 1831 709 2203 709 
Q 2569 709 2762 976 
Q 2956 1244 2956 1747 
Q 2956 2250 2762 2517 
Q 2569 2784 2203 2784 
z
M 2203 3584 
Q 3106 3584 3614 3096 
Q 4122 2609 4122 1747 
Q 4122 884 3614 396 
Q 3106 -91 2203 -91 
Q 1297 -91 786 396 
Q 275 884 275 1747 
Q 275 2609 786 3096 
Q 1297 3584 2203 3584 
z
" transform="scale(0.015625)"/>
      <path id="DejaVuSans-Bold-64" d="M 2919 2988 
L 2919 4863 
L 4044 4863 
L 4044 0 
L 2919 0 
L 2919 506 
Q 2688 197 2409 53 
Q 2131 -91 1766 -91 
Q 1119 -91 703 423 
Q 288 938 288 1747 
Q 288 2556 703 3070 
Q 1119 3584 1766 3584 
Q 2128 3584 2408 3439 
Q 2688 3294 2919 2988 
z
M 2181 722 
Q 2541 722 2730 984 
Q 2919 1247 2919 1747 
Q 2919 2247 2730 2509 
Q 2541 2772 2181 2772 
Q 1825 2772 1636 2509 
Q 1447 2247 1447 1747 
Q 1447 1247 1636 984 
Q 1825 722 2181 722 
z
" transform="scale(0.015625)"/>
      <path id="DejaVuSans-Bold-65" d="M 4031 1759 
L 4031 1441 
L 1416 1441 
Q 1456 1047 1700 850 
Q 1944 653 2381 653 
Q 2734 653 3104 758 
Q 3475 863 3866 1075 
L 3866 213 
Q 3469 63 3072 -14 
Q 2675 -91 2278 -91 
Q 1328 -91 801 392 
Q 275 875 275 1747 
Q 275 2603 792 3093 
Q 1309 3584 2216 3584 
Q 3041 3584 3536 3087 
Q 4031 2591 4031 1759 
z
M 2881 2131 
Q 2881 2450 2695 2645 
Q 2509 2841 2209 2841 
Q 1884 2841 1681 2658 
Q 1478 2475 1428 2131 
L 2881 2131 
z
" transform="scale(0.015625)"/>
      <path id="DejaVuSans-Bold-66" d="M 2841 4863 
L 2841 4128 
L 2222 4128 
Q 1984 4128 1890 4042 
Q 1797 3956 1797 3744 
L 1797 3500 
L 2753 3500 
L 2753 2700 
L 1797 2700 
L 1797 0 
L 678 0 
L 678 2700 
L 122 2700 
L 122 3500 
L 678 3500 
L 678 3744 
Q 678 4316 997 4589 
Q 1316 4863 1984 4863 
L 2841 4863 
z
" transform="scale(0.015625)"/>
      <path id="DejaVuSans-Bold-72" d="M 3138 2547 
Q 2991 2616 2845 2648 
Q 2700 2681 2553 2681 
Q 2122 2681 1889 2404 
Q 1656 2128 1656 1613 
L 1656 0 
L 538 0 
L 538 3500 
L 1656 3500 
L 1656 2925 
Q 1872 3269 2151 3426 
Q 2431 3584 2822 3584 
Q 2878 3584 2943 3579 
Q 3009 3575 3134 3559 
L 3138 2547 
z
" transform="scale(0.015625)"/>
      <path id="DejaVuSans-Bold-63" d="M 3366 3391 
L 3366 2478 
Q 3138 2634 2908 2709 
Q 2678 2784 2431 2784 
Q 1963 2784 1702 2511 
Q 1441 2238 1441 1747 
Q 1441 1256 1702 982 
Q 1963 709 2431 709 
Q 2694 709 2930 787 
Q 3166 866 3366 1019 
L 3366 103 
Q 3103 6 2833 -42 
Q 2563 -91 2291 -91 
Q 1344 -91 809 395 
Q 275 881 275 1747 
Q 275 2613 809 3098 
Q 1344 3584 2291 3584 
Q 2566 3584 2833 3536 
Q 3100 3488 3366 3391 
z
" transform="scale(0.015625)"/>
      <path id="DejaVuSans-Bold-73" d="M 3272 3391 
L 3272 2541 
Q 2913 2691 2578 2766 
Q 2244 2841 1947 2841 
Q 1628 2841 1473 2761 
Q 1319 2681 1319 2516 
Q 1319 2381 1436 2309 
Q 1553 2238 1856 2203 
L 2053 2175 
Q 2913 2066 3209 1816 
Q 3506 1566 3506 1031 
Q 3506 472 3093 190 
Q 2681 -91 1863 -91 
Q 1516 -91 1145 -36 
Q 775 19 384 128 
L 384 978 
Q 719 816 1070 734 
Q 1422 653 1784 653 
Q 2113 653 2278 743 
Q 2444 834 2444 1013 
Q 2444 1163 2330 1236 
Q 2216 1309 1875 1350 
L 1678 1375 
Q 931 1469 631 1722 
Q 331 1975 331 2491 
Q 331 3047 712 3315 
Q 1094 3584 1881 3584 
Q 2191 3584 2531 3537 
Q 2872 3491 3272 3391 
z
" transform="scale(0.015625)"/>
      <path id="DejaVuSans-Bold-20" transform="scale(0.015625)"/>
      <path id="DejaVuSans-Bold-52" d="M 2297 2597 
Q 2675 2597 2839 2737 
Q 3003 2878 3003 3200 
Q 3003 3519 2839 3656 
Q 2675 3794 2297 3794 
L 1791 3794 
L 1791 2597 
L 2297 2597 
z
M 1791 1766 
L 1791 0 
L 588 0 
L 588 4666 
L 2425 4666 
Q 3347 4666 3776 4356 
Q 4206 4047 4206 3378 
Q 4206 2916 3982 2619 
Q 3759 2322 3309 2181 
Q 3556 2125 3751 1926 
Q 3947 1728 4147 1325 
L 4800 0 
L 3519 0 
L 2950 1159 
Q 2778 1509 2601 1637 
Q 2425 1766 2131 1766 
L 1791 1766 
z
" transform="scale(0.015625)"/>
      <path id="DejaVuSans-Bold-61" d="M 2106 1575 
Q 1756 1575 1579 1456 
Q 1403 1338 1403 1106 
Q 1403 894 1545 773 
Q 1688 653 1941 653 
Q 2256 653 2472 879 
Q 2688 1106 2688 1447 
L 2688 1575 
L 2106 1575 
z
M 3816 1997 
L 3816 0 
L 2688 0 
L 2688 519 
Q 2463 200 2181 54 
Q 1900 -91 1497 -91 
Q 953 -91 614 226 
Q 275 544 275 1050 
Q 275 1666 698 1953 
Q 1122 2241 2028 2241 
L 2688 2241 
L 2688 2328 
Q 2688 2594 2478 2717 
Q 2269 2841 1825 2841 
Q 1466 2841 1156 2769 
Q 847 2697 581 2553 
L 581 3406 
Q 941 3494 1303 3539 
Q 1666 3584 2028 3584 
Q 2975 3584 3395 3211 
Q 3816 2838 3816 1997 
z
" transform="scale(0.015625)"/>
      <path id="DejaVuSans-Bold-74" d="M 1759 4494 
L 1759 3500 
L 2913 3500 
L 2913 2700 
L 1759 2700 
L 1759 1216 
Q 1759 972 1856 886 
Q 1953 800 2241 800 
L 2816 800 
L 2816 0 
L 1856 0 
Q 1194 0 917 276 
Q 641 553 641 1216 
L 641 2700 
L 84 2700 
L 84 3500 
L 641 3500 
L 641 4494 
L 1759 4494 
z
" transform="scale(0.015625)"/>
      <path id="DejaVuSans-Bold-69" d="M 538 3500 
L 1656 3500 
L 1656 0 
L 538 0 
L 538 3500 
z
M 538 4863 
L 1656 4863 
L 1656 3950 
L 538 3950 
L 538 4863 
z
" transform="scale(0.015625)"/>
      <path id="DejaVuSans-Bold-6e" d="M 4056 2131 
L 4056 0 
L 2931 0 
L 2931 347 
L 2931 1631 
Q 2931 2084 2911 2256 
Q 2891 2428 2841 2509 
Q 2775 2619 2662 2680 
Q 2550 2741 2406 2741 
Q 2056 2741 1856 2470 
Q 1656 2200 1656 1722 
L 1656 0 
L 538 0 
L 538 3500 
L 1656 3500 
L 1656 2988 
Q 1909 3294 2193 3439 
Q 2478 3584 2822 3584 
Q 3428 3584 3742 3212 
Q 4056 2841 4056 2131 
z
" transform="scale(0.015625)"/>
      <path id="DejaVuSans-Bold-67" d="M 2919 594 
Q 2688 288 2409 144 
Q 2131 0 1766 0 
Q 1125 0 706 504 
Q 288 1009 288 1791 
Q 288 2575 706 3076 
Q 1125 3578 1766 3578 
Q 2131 3578 2409 3434 
Q 2688 3291 2919 2981 
L 2919 3500 
L 4044 3500 
L 4044 353 
Q 4044 -491 3511 -936 
Q 2978 -1381 1966 -1381 
Q 1638 -1381 1331 -1331 
Q 1025 -1281 716 -1178 
L 716 -306 
Q 1009 -475 1290 -558 
Q 1572 -641 1856 -641 
Q 2406 -641 2662 -400 
Q 2919 -159 2919 353 
L 2919 594 
z
M 2181 2772 
Q 1834 2772 1640 2515 
Q 1447 2259 1447 1791 
Q 1447 1309 1634 1061 
Q 1822 813 2181 813 
Q 2531 813 2725 1069 
Q 2919 1325 2919 1791 
Q 2919 2259 2725 2515 
Q 2531 2772 2181 2772 
z
" transform="scale(0.015625)"/>
      <path id="DejaVuSans-Bold-47" d="M 4781 347 
Q 4331 128 3847 18 
Q 3363 -91 2847 -91 
Q 1681 -91 1000 561 
Q 319 1213 319 2328 
Q 319 3456 1012 4103 
Q 1706 4750 2913 4750 
Q 3378 4750 3804 4662 
Q 4231 4575 4609 4403 
L 4609 3438 
Q 4219 3659 3833 3768 
Q 3447 3878 3059 3878 
Q 2341 3878 1952 3476 
Q 1563 3075 1563 2328 
Q 1563 1588 1938 1184 
Q 2313 781 3003 781 
Q 3191 781 3352 804 
Q 3513 828 3641 878 
L 3641 1784 
L 2906 1784 
L 2906 2591 
L 4781 2591 
L 4781 347 
z
" transform="scale(0.015625)"/>
      <path id="DejaVuSans-Bold-70" d="M 1656 506 
L 1656 -1331 
L 538 -1331 
L 538 3500 
L 1656 3500 
L 1656 2988 
Q 1888 3294 2169 3439 
Q 2450 3584 2816 3584 
Q 3463 3584 3878 3070 
Q 4294 2556 4294 1747 
Q 4294 938 3878 423 
Q 3463 -91 2816 -91 
Q 2450 -91 2169 54 
Q 1888 200 1656 506 
z
M 2400 2772 
Q 2041 2772 1848 2508 
Q 1656 2244 1656 1747 
Q 1656 1250 1848 986 
Q 2041 722 2400 722 
Q 2759 722 2948 984 
Q 3138 1247 3138 1747 
Q 3138 2247 2948 2509 
Q 2759 2772 2400 2772 
z
" transform="scale(0.015625)"/>
      <path id="DejaVuSans-Bold-68" d="M 4056 2131 
L 4056 0 
L 2931 0 
L 2931 347 
L 2931 1625 
Q 2931 2084 2911 2256 
Q 2891 2428 2841 2509 
Q 2775 2619 2662 2680 
Q 2550 2741 2406 2741 
Q 2056 2741 1856 2470 
Q 1656 2200 1656 1722 
L 1656 0 
L 538 0 
L 538 4863 
L 1656 4863 
L 1656 2988 
Q 1909 3294 2193 3439 
Q 2478 3584 2822 3584 
Q 3428 3584 3742 3212 
Q 4056 2841 4056 2131 
z
" transform="scale(0.015625)"/>
      <path id="DejaVuSans-Bold-4a" d="M 588 4666 
L 1791 4666 
L 1791 453 
Q 1791 -419 1317 -850 
Q 844 -1281 -116 -1281 
L -359 -1281 
L -359 -372 
L -172 -372 
Q 203 -372 395 -162 
Q 588 47 588 453 
L 588 4666 
z
" transform="scale(0.015625)"/>
     </defs>
     <use xlink:href="#DejaVuSans-Bold-43"/>
     <use xlink:href="#DejaVuSans-Bold-6f" transform="translate(73.388672 0)"/>
     <use xlink:href="#DejaVuSans-Bold-64" transform="translate(142.089844 0)"/>
     <use xlink:href="#DejaVuSans-Bold-65" transform="translate(213.671875 0)"/>
     <use xlink:href="#DejaVuSans-Bold-66" transform="translate(281.494141 0)"/>
     <use xlink:href="#DejaVuSans-Bold-6f" transform="translate(325 0)"/>
     <use xlink:href="#DejaVuSans-Bold-72" transform="translate(393.701172 0)"/>
     <use xlink:href="#DejaVuSans-Bold-63" transform="translate(443.017578 0)"/>
     <use xlink:href="#DejaVuSans-Bold-65" transform="translate(502.294922 0)"/>
     <use xlink:href="#DejaVuSans-Bold-73" transform="translate(570.117188 0)"/>
     <use xlink:href="#DejaVuSans-Bold-20" transform="translate(629.638672 0)"/>
     <use xlink:href="#DejaVuSans-Bold-52" transform="translate(664.453125 0)"/>
     <use xlink:href="#DejaVuSans-Bold-61" transform="translate(741.455078 0)"/>
     <use xlink:href="#DejaVuSans-Bold-74" transform="translate(808.935547 0)"/>
     <use xlink:href="#DejaVuSans-Bold-69" transform="translate(856.738281 0)"/>
     <use xlink:href="#DejaVuSans-Bold-6e" transform="translate(891.015625 0)"/>
     <use xlink:href="#DejaVuSans-Bold-67" transform="translate(962.207031 0)"/>
     <use xlink:href="#DejaVuSans-Bold-20" transform="translate(1033.789062 0)"/>
     <use xlink:href="#DejaVuSans-Bold-47" transform="translate(1068.603516 0)"/>
     <use xlink:href="#DejaVuSans-Bold-72" transform="translate(1150.683594 0)"/>
     <use xlink:href="#DejaVuSans-Bold-61" transform="translate(1200 0)"/>
     <use xlink:href="#DejaVuSans-Bold-70" transform="translate(1267.480469 0)"/>
     <use xlink:href="#DejaVuSans-Bold-68" transform="translate(1339.0625 0)"/>
     <use xlink:href="#DejaVuSans-Bold-20" transform="translate(1410.253906 0)"/>
     <use xlink:href="#DejaVuSans-Bold-66" transform="translate(1445.068359 0)"/>
     <use xlink:href="#DejaVuSans-Bold-6f" transform="translate(1488.574219 0)"/>
     <use xlink:href="#DejaVuSans-Bold-72" transform="translate(1557.275391 0)"/>
     <use xlink:href="#DejaVuSans-Bold-20" transform="translate(1606.591797 0)"/>
     <use xlink:href="#DejaVuSans-Bold-4a" transform="translate(1641.40625 0)"/>
     <use xlink:href="#DejaVuSans-Bold-61" transform="translate(1678.613281 0)"/>
     <use xlink:href="#DejaVuSans-Bold-61" transform="translate(1746.09375 0)"/>
     <use xlink:href="#DejaVuSans-Bold-72" transform="translate(1813.574219 0)"/>
     <use xlink:href="#DejaVuSans-Bold-64" transform="translate(1862.890625 0)"/>
     <use xlink:href="#DejaVuSans-Bold-6f" transform="translate(1934.472656 0)"/>
    </g>
   </g>
   <g id="PathCollection_1">
    <defs>
     <path id="m14e82bff86" d="M 0 4.1833 
C 1.109424 4.1833 2.173559 3.742521 2.95804 2.95804 
C 3.742521 2.173559 4.1833 1.109424 4.1833 0 
C 4.1833 -1.109424 3.742521 -2.173559 2.95804 -2.95804 
C 2.173559 -3.742521 1.109424 -4.1833 0 -4.1833 
C -1.109424 -4.1833 -2.173559 -3.742521 -2.95804 -2.95804 
C -3.742521 -2.173559 -4.1833 -1.109424 -4.1833 0 
C -4.1833 1.109424 -3.742521 2.173559 -2.95804 2.95804 
C -2.173559 3.742521 -1.109424 4.1833 0 4.1833 
z
" style="stroke: #ffffff; stroke-width: 1.5"/>
    </defs>
    <g clip-path="url(#pbe6b30c807)">
     <use xlink:href="#m14e82bff86" x="96.102273" y="290.108472" style="fill: #1f77b4; stroke: #ffffff; stroke-width: 1.5"/>
     <use xlink:href="#m14e82bff86" x="276.363636" y="168.107528" style="fill: #1f77b4; stroke: #ffffff; stroke-width: 1.5"/>
     <use xlink:href="#m14e82bff86" x="456.625" y="116.751895" style="fill: #1f77b4; stroke: #ffffff; stroke-width: 1.5"/>
     <use xlink:href="#m14e82bff86" x="636.886364" y="76.919965" style="fill: #1f77b4; stroke: #ffffff; stroke-width: 1.5"/>
     <use xlink:href="#m14e82bff86" x="817.147727" y="53.371528" style="fill: #1f77b4; stroke: #ffffff; stroke-width: 1.5"/>
    </g>
   </g>
  </g>
 </g>
 <defs>
  <clipPath id="pbe6b30c807">
   <rect x="60.05" y="28.32" width="793.15" height="286.84"/>
  </clipPath>
 </defs>
</svg>
